<svg width="18" height="22" viewBox="0 0 18 22" fill="none" xmlns="http://www.w3.org/2000/svg">
<path d="M9.75 1.37444L9.87409 0.634775L9.75 1.37444ZM16.5 12.5C16.5 12.9142 16.8358 13.25 17.25 13.25C17.6642 13.25 18 12.9142 18 12.5H16.5ZM6.75 0.5C6.33579 0.5 6 0.835786 6 1.25C6 1.66421 6.33579 2 6.75 2V0.5ZM6.375 2H8.25V0.5H6.375V2ZM16.5 10.25V15.125H18V10.25H16.5ZM6.375 15.5C6.16789 15.5 6 15.3321 6 15.125H4.5C4.5 16.1605 5.33947 17 6.375 17V15.5ZM16.125 17C17.1605 17 18 16.1605 18 15.125H16.5C16.5 15.3321 16.3321 15.5 16.125 15.5V17ZM6 2.375C6 2.16789 6.16789 2 6.375 2V0.5C5.33947 0.5 4.5 1.33947 4.5 2.375H6ZM8.25 2C8.71932 2 9.17894 2.03911 9.62591 2.1141L9.87409 0.634775C9.34544 0.546084 8.80282 0.5 8.25 0.5V2ZM9.62591 2.1141C13.5272 2.76861 16.5 6.16288 16.5 10.25H18C18 5.41814 14.4859 1.4085 9.87409 0.634775L9.62591 2.1141ZM11.625 20H1.875V21.5H11.625V20ZM1.5 19.625V6.875H0V19.625H1.5ZM1.875 6.5H3.75V5H1.875V6.5ZM1.875 20C1.66789 20 1.5 19.8321 1.5 19.625H0C0 20.6605 0.839466 21.5 1.875 21.5V20ZM11.625 21.5C12.6605 21.5 13.5 20.6605 13.5 19.625H12C12 19.8321 11.8321 20 11.625 20V21.5ZM1.5 6.875C1.5 6.66789 1.66789 6.5 1.875 6.5V5C0.839466 5 0 5.83947 0 6.875H1.5ZM12 16.25V19.625H13.5V16.25H12ZM16.125 15.5H12.75V17H16.125V15.5ZM12.75 15.5H6.375V17H12.75V15.5ZM3.75 6.5C4.21932 6.5 4.67893 6.53911 5.12591 6.6141L5.37409 5.13477C4.84544 5.04608 4.30282 5 3.75 5V6.5ZM6 15.125V5.87444H4.5V15.125H6ZM6 5.87444V2.375H4.5V5.87444H6ZM18 12.5V10.625H16.5V12.5H18ZM13.875 6.5H12.375V8H13.875V6.5ZM12 6.125V4.625H10.5V6.125H12ZM7.875 0.5H6.75V2H7.875V0.5ZM12 4.625C12 2.34683 10.1532 0.5 7.875 0.5V2C9.32475 2 10.5 3.17525 10.5 4.625H12ZM18 10.625C18 8.34683 16.1532 6.5 13.875 6.5V8C15.3247 8 16.5 9.17525 16.5 10.625H18ZM12.375 6.5C12.1679 6.5 12 6.33211 12 6.125H10.5C10.5 7.16053 11.3395 8 12.375 8V6.5Z" fill="#ABABAB"/>
</svg>
