<svg width="18" height="22" viewBox="0 0 18 22" fill="none" xmlns="http://www.w3.org/2000/svg">
<path d="M12.4898 8.02882C12.5058 7.61492 12.1831 7.26647 11.7692 7.25055C11.3553 7.23463 11.0069 7.55727 10.9909 7.97118L12.4898 8.02882ZM10.6448 16.9712C10.6289 17.3851 10.9515 17.7335 11.3654 17.7494C11.7793 17.7654 12.1278 17.4427 12.1437 17.0288L10.6448 16.9712ZM5.85632 17.0288C5.87224 17.4427 6.22069 17.7654 6.63459 17.7494C7.0485 17.7335 7.37113 17.3851 7.35522 16.9712L5.85632 17.0288ZM7.00906 7.97118C6.99314 7.55727 6.6447 7.23463 6.23079 7.25055C5.81688 7.26647 5.49425 7.61492 5.51017 8.02882L7.00906 7.97118ZM16.2276 4.79057L16.3396 4.04898L16.2276 4.79057ZM17.122 5.69529C17.5301 5.76598 17.9183 5.49244 17.989 5.0843C18.0597 4.67617 17.7861 4.28799 17.378 4.2173L17.122 5.69529ZM15.1598 18.6726L14.412 18.615V18.615L15.1598 18.6726ZM0.621989 4.2173C0.213853 4.28799 -0.0596932 4.67617 0.0110053 5.0843C0.0817038 5.49244 0.469875 5.76598 0.878011 5.69529L0.621989 4.2173ZM2.8402 18.6726L2.09241 18.7301L2.8402 18.6726ZM10.6606 1.27652L10.6846 0.526907L10.6606 1.27652ZM7.33942 1.27652L7.36339 2.02614L7.33942 1.27652ZM12.75 4.39432L12.6922 5.14209L12.75 4.39432ZM5.25 4.39432L5.30778 5.14209L5.25 4.39432ZM10.9909 7.97118L10.6448 16.9712L12.1437 17.0288L12.4898 8.02882L10.9909 7.97118ZM7.35522 16.9712L7.00906 7.97118L5.51017 8.02882L5.85632 17.0288L7.35522 16.9712ZM12.9164 20H5.08357V21.5H12.9164V20ZM16.1157 5.53216C16.4523 5.583 16.7877 5.63739 17.122 5.69529L17.378 4.2173C17.0331 4.15755 16.687 4.10143 16.3396 4.04898L16.1157 5.53216ZM15.4799 4.73305L14.412 18.615L15.9076 18.7301L16.9754 4.84809L15.4799 4.73305ZM0.878011 5.69529C1.21226 5.63739 1.54772 5.583 1.88435 5.53216L1.66036 4.04898C1.31302 4.10143 0.966888 4.15755 0.621989 4.2173L0.878011 5.69529ZM3.58799 18.615L2.52014 4.73305L1.02456 4.84809L2.09241 18.7301L3.58799 18.615ZM5.08357 20C4.29977 20 3.6481 19.3965 3.58799 18.615L2.09241 18.7301C2.21264 20.2931 3.51596 21.5 5.08357 21.5V20ZM12.9164 21.5C14.484 21.5 15.7874 20.2931 15.9076 18.7301L14.412 18.615C14.3519 19.3965 13.7002 20 12.9164 20V21.5ZM9 2C9.54765 2 10.0932 2.00876 10.6366 2.02614L10.6846 0.526907C10.1252 0.509014 9.56365 0.5 9 0.5V2ZM7.36339 2.02614C7.90677 2.00876 8.45235 2 9 2V0.5C8.43635 0.5 7.87479 0.509014 7.31544 0.526907L7.36339 2.02614ZM7.31544 0.526907C5.71253 0.578183 4.5 1.91371 4.5 3.47819H6C6 2.68393 6.60878 2.05028 7.36339 2.02614L7.31544 0.526907ZM10.6366 2.02614C11.3912 2.05028 12 2.68393 12 3.47819H13.5C13.5 1.91371 12.2875 0.578183 10.6846 0.526907L10.6366 2.02614ZM12 3.47819V4.39432H13.5V3.47819H12ZM9 5C10.2427 5 11.474 5.04796 12.6922 5.14209L12.8078 3.64655C11.5511 3.54945 10.2813 3.5 9 3.5V5ZM12.6922 5.14209C13.8455 5.23122 14.9872 5.36174 16.1157 5.53216L16.3396 4.04898C15.1753 3.87313 13.9975 3.73849 12.8078 3.64655L12.6922 5.14209ZM4.5 3.47819V4.39432H6V3.47819H4.5ZM1.88435 5.53216C3.01282 5.36174 4.15446 5.23122 5.30778 5.14209L5.19222 3.64655C4.00253 3.73849 2.82473 3.87313 1.66036 4.04898L1.88435 5.53216ZM5.30778 5.14209C6.52602 5.04796 7.75734 5 9 5V3.5C7.71873 3.5 6.44886 3.54945 5.19222 3.64655L5.30778 5.14209Z" fill="#D91E36"/>
</svg>
