<svg width="24" height="24" viewBox="0 0 24 24" fill="none" xmlns="http://www.w3.org/2000/svg">
<path d="M6 4.5H8.25V3H6V4.5ZM9.75 6V8.25H11.25V6H9.75ZM8.25 9.75H6V11.25H8.25V9.75ZM4.5 8.25V6H3V8.25H4.5ZM6 9.75C5.17157 9.75 4.5 9.07843 4.5 8.25H3C3 9.90685 4.34315 11.25 6 11.25V9.75ZM9.75 8.25C9.75 9.07843 9.07843 9.75 8.25 9.75V11.25C9.90685 11.25 11.25 9.90685 11.25 8.25H9.75ZM8.25 4.5C9.07843 4.5 9.75 5.17157 9.75 6H11.25C11.25 4.34315 9.90685 3 8.25 3V4.5ZM6 3C4.34315 3 3 4.34315 3 6H4.5C4.5 5.17157 5.17157 4.5 6 4.5V3ZM6 14.25H8.25V12.75H6V14.25ZM9.75 15.75V18H11.25V15.75H9.75ZM8.25 19.5H6V21H8.25V19.5ZM4.5 18V15.75H3V18H4.5ZM6 19.5C5.17157 19.5 4.5 18.8284 4.5 18H3C3 19.6569 4.34315 21 6 21V19.5ZM9.75 18C9.75 18.8284 9.07843 19.5 8.25 19.5V21C9.90685 21 11.25 19.6569 11.25 18H9.75ZM8.25 14.25C9.07843 14.25 9.75 14.9216 9.75 15.75H11.25C11.25 14.0931 9.90685 12.75 8.25 12.75V14.25ZM6 12.75C4.34315 12.75 3 14.0931 3 15.75H4.5C4.5 14.9216 5.17157 14.25 6 14.25V12.75ZM15.75 4.5H18V3H15.75V4.5ZM19.5 6V8.25H21V6H19.5ZM18 9.75H15.75V11.25H18V9.75ZM14.25 8.25V6H12.75V8.25H14.25ZM15.75 9.75C14.9216 9.75 14.25 9.07843 14.25 8.25H12.75C12.75 9.90685 14.0931 11.25 15.75 11.25V9.75ZM19.5 8.25C19.5 9.07843 18.8284 9.75 18 9.75V11.25C19.6569 11.25 21 9.90685 21 8.25H19.5ZM18 4.5C18.8284 4.5 19.5 5.17157 19.5 6H21C21 4.34315 19.6569 3 18 3V4.5ZM15.75 3C14.0931 3 12.75 4.34315 12.75 6H14.25C14.25 5.17157 14.9216 4.5 15.75 4.5V3ZM15.75 14.25H18V12.75H15.75V14.25ZM19.5 15.75V18H21V15.75H19.5ZM18 19.5H15.75V21H18V19.5ZM14.25 18V15.75H12.75V18H14.25ZM15.75 19.5C14.9216 19.5 14.25 18.8284 14.25 18H12.75C12.75 19.6569 14.0931 21 15.75 21V19.5ZM19.5 18C19.5 18.8284 18.8284 19.5 18 19.5V21C19.6569 21 21 19.6569 21 18H19.5ZM18 14.25C18.8284 14.25 19.5 14.9216 19.5 15.75H21C21 14.0931 19.6569 12.75 18 12.75V14.25ZM15.75 12.75C14.0931 12.75 12.75 14.0931 12.75 15.75H14.25C14.25 14.9216 14.9216 14.25 15.75 14.25V12.75Z" fill="#999999"/>
</svg>
