<svg width="24" height="24" viewBox="0 0 24 24" fill="none" xmlns="http://www.w3.org/2000/svg">
<path d="M5.78033 20.0303C5.48744 20.3232 5.01256 20.3232 4.71967 20.0303C4.42678 19.7374 4.42678 19.2626 4.71967 18.9697L5.78033 20.0303ZM12.75 12L13.2803 11.4697C13.5732 11.7626 13.5732 12.2374 13.2803 12.5303L12.75 12ZM4.71967 5.03033C4.42678 4.73744 4.42678 4.26256 4.71967 3.96967C5.01256 3.67678 5.48744 3.67678 5.78033 3.96967L4.71967 5.03033ZM11.7803 20.0303C11.4874 20.3232 11.0126 20.3232 10.7197 20.0303C10.4268 19.7374 10.4268 19.2626 10.7197 18.9697L11.7803 20.0303ZM18.75 12L19.2803 11.4697C19.5732 11.7626 19.5732 12.2374 19.2803 12.5303L18.75 12ZM10.7197 5.03033C10.4268 4.73744 10.4268 4.26256 10.7197 3.96967C11.0126 3.67678 11.4874 3.67678 11.7803 3.96967L10.7197 5.03033ZM4.71967 18.9697L12.2197 11.4697L13.2803 12.5303L5.78033 20.0303L4.71967 18.9697ZM12.2197 12.5303L4.71967 5.03033L5.78033 3.96967L13.2803 11.4697L12.2197 12.5303ZM10.7197 18.9697L18.2197 11.4697L19.2803 12.5303L11.7803 20.0303L10.7197 18.9697ZM18.2197 12.5303L10.7197 5.03033L11.7803 3.96967L19.2803 11.4697L18.2197 12.5303Z" fill="#999999"/>
</svg>
