<svg width="32" height="32" viewBox="0 0 32 32" fill="none" xmlns="http://www.w3.org/2000/svg">
<circle cx="16" cy="16" r="16" fill="#D91E36"/>
<path d="M10.8038 21.1981C10.8632 21.2575 10.9318 21.2963 11.0094 21.3146C11.0917 21.3375 11.1717 21.3375 11.2493 21.3146C11.327 21.2963 11.3956 21.2575 11.455 21.1981L16.006 16.6539L20.5502 21.1981C20.605 21.2575 20.6712 21.2963 20.7489 21.3146C20.8312 21.3375 20.9111 21.3398 20.9888 21.3215C21.0711 21.3032 21.1419 21.2621 21.2013 21.1981C21.2607 21.1387 21.2995 21.0702 21.3178 20.9925C21.3361 20.9148 21.3361 20.8371 21.3178 20.7594C21.2995 20.6772 21.2607 20.6064 21.2013 20.547L16.6571 16.0028L21.2013 11.4518C21.2607 11.3924 21.2995 11.3238 21.3178 11.2462C21.3406 11.1685 21.3406 11.0908 21.3178 11.0131C21.2995 10.9309 21.2607 10.8623 21.2013 10.8075C21.1373 10.7435 21.0665 10.7024 20.9888 10.6841C20.9111 10.6613 20.8312 10.6613 20.7489 10.6841C20.6712 10.7024 20.605 10.7435 20.5502 10.8075L16.006 15.3517L11.455 10.8075C11.3956 10.7435 11.3247 10.7024 11.2425 10.6841C11.1648 10.6613 11.0871 10.6613 11.0094 10.6841C10.9318 10.7024 10.8632 10.7435 10.8038 10.8075C10.7444 10.8623 10.7033 10.9309 10.6805 11.0131C10.6622 11.0908 10.6622 11.1685 10.6805 11.2462C10.7033 11.3238 10.7444 11.3924 10.8038 11.4518L15.348 16.0028L10.8038 20.547C10.7444 20.6064 10.7033 20.6772 10.6805 20.7594C10.6622 20.8371 10.6622 20.9148 10.6805 20.9925C10.6987 21.0702 10.7399 21.1387 10.8038 21.1981Z" fill="#FFFFFF"/>
</svg>
