<svg width="16" height="16" viewBox="0 0 16 16" fill="none" xmlns="http://www.w3.org/2000/svg">
<path d="M8 15C11.8315 15 15 11.8315 15 8C15 4.16152 11.8315 1 7.99302 1C4.16152 1 1 4.16152 1 8C1 11.8315 4.16849 15 8 15ZM8 9.27717C7.72084 9.27717 7.55334 9.10967 7.55334 8.80957L7.47657 4.999C7.46959 4.70588 7.68594 4.48953 7.99302 4.48953C8.30708 4.48953 8.52343 4.70588 8.52343 5.00598L8.43968 8.80957C8.4327 9.10967 8.27218 9.27717 8 9.27717ZM8 11.4895C7.64407 11.4895 7.33699 11.1964 7.33699 10.8405C7.33699 10.4915 7.63709 10.1984 8 10.1984C8.36291 10.1984 8.66999 10.4845 8.66999 10.8405C8.66999 11.1964 8.36291 11.4895 8 11.4895Z" fill="#D91E36"/>
</svg>
