<svg width="32" height="32" viewBox="0 0 32 32" fill="none" xmlns="http://www.w3.org/2000/svg">
<g clip-path="url(#clip0_3721_125447)">
<path d="M27.313 27.313C29.9305 24.6956 31.5596 21.2515 31.9225 17.5676C32.2854 13.8837 31.3597 10.188 29.3032 7.11007C27.2466 4.03218 24.1865 1.76259 20.6442 0.688012C17.1019 -0.386563 13.2965 -0.199632 9.8766 1.21696C6.45666 2.63354 3.6337 5.19214 1.88875 8.45677C0.143788 11.7214 -0.415204 15.4901 0.307014 19.1207C1.02923 22.7513 2.98797 26.0191 5.84949 28.3674C8.711 30.7157 12.2982 31.9991 16 31.999C20.2431 31.9989 24.3125 30.3133 27.313 27.313Z" fill="#23BF9A"/>
<path d="M9 17L13 21L23 11" stroke="white" stroke-width="1.5" stroke-linecap="round" stroke-linejoin="round"/>
</g>
<defs>
<clipPath id="clip0_3721_125447">
<rect width="31.999" height="31.999" fill="white"/>
</clipPath>
</defs>
</svg>
